<svg xmlns="http://www.w3.org/2000/svg" xmlns:xlink="http://www.w3.org/1999/xlink" width="500" zoomAndPan="magnify" viewBox="0 0 375 374.999991" height="500" preserveAspectRatio="xMidYMid meet" version="1.0"><defs><clipPath id="d72b6b30d2"><path d="M 81 64 L 295 64 L 295 311 L 81 311 Z M 81 64 " clip-rule="nonzero"/></clipPath><clipPath id="8822ce6c73"><path d="M 28.125 157.796875 L 239.832031 33.996094 L 346.976562 217.21875 L 135.265625 341.019531 Z M 28.125 157.796875 " clip-rule="nonzero"/></clipPath><clipPath id="71eadc0ba2"><path d="M 28.125 157.796875 L 239.832031 33.996094 L 346.976562 217.21875 L 135.265625 341.019531 Z M 28.125 157.796875 " clip-rule="nonzero"/></clipPath><clipPath id="9ec08962fb"><path d="M 28.125 157.796875 L 239.832031 33.996094 L 346.976562 217.21875 L 135.265625 341.019531 Z M 28.125 157.796875 " clip-rule="nonzero"/></clipPath><clipPath id="f5a1374ecd"><path d="M 117.328125 122.425781 L 257.578125 122.425781 L 257.578125 252.175781 L 117.328125 252.175781 Z M 117.328125 122.425781 " clip-rule="nonzero"/></clipPath></defs><g clip-path="url(#d72b6b30d2)"><g clip-path="url(#8822ce6c73)"><g clip-path="url(#71eadc0ba2)"><g clip-path="url(#9ec08962fb)"><path fill="#ffffff" d="M 188.230469 310.046875 L 81.761719 249.367188 L 81.085938 126.824219 L 186.871094 64.964844 L 293.335938 125.644531 L 294.015625 248.1875 Z M 188.230469 310.046875 " fill-opacity="1" fill-rule="nonzero"/></g></g></g></g><g clip-path="url(#f5a1374ecd)"><path fill="#404040" d="M 146.195312 227.09375 C 148.375 226.117188 150.703125 225.046875 153.148438 223.859375 C 153.234375 223.824219 153.289062 223.761719 153.320312 223.675781 C 153.347656 223.589844 153.34375 223.503906 153.300781 223.421875 C 151.550781 220.09375 150.25 216.601562 149.394531 212.9375 C 148.539062 209.277344 148.160156 205.566406 148.253906 201.804688 C 148.242188 198.347656 148.625 194.9375 149.402344 191.570312 C 150.179688 188.207031 151.328125 184.972656 152.851562 181.871094 C 152.898438 181.796875 152.964844 181.773438 153.046875 181.796875 C 153.132812 181.820312 153.175781 181.875 153.179688 181.960938 C 151.121094 195.90625 152.308594 209.703125 158.257812 221.078125 C 158.296875 221.152344 158.359375 221.203125 158.4375 221.230469 C 158.519531 221.257812 158.601562 221.25 158.675781 221.210938 C 167.3125 216.878906 177.210938 211.476562 188.023438 205.085938 C 202.105469 196.882812 215.667969 187.894531 228.710938 178.125 C 228.859375 178.019531 228.890625 177.890625 228.800781 177.734375 C 228.605469 177.34375 228.398438 176.949219 228.1875 176.574219 C 226.984375 174.53125 225.484375 172.742188 223.679688 171.203125 C 223.601562 171.171875 223.519531 171.171875 223.441406 171.203125 C 223.355469 171.222656 223.292969 171.273438 223.261719 171.355469 C 222.824219 172.203125 222.234375 172.925781 221.496094 173.527344 C 220.757812 174.128906 219.925781 174.558594 219.011719 174.816406 C 216.007812 175.703125 212.207031 175.054688 210.644531 172.015625 C 210.136719 171.015625 209.933594 169.957031 210.042969 168.84375 C 210.085938 168.546875 210.152344 168.253906 210.238281 167.96875 C 210.292969 167.832031 210.390625 167.769531 210.539062 167.789062 C 210.691406 167.796875 210.777344 167.878906 210.792969 168.03125 C 210.875 168.550781 211.03125 169.046875 211.261719 169.519531 C 211.496094 169.988281 211.796875 170.414062 212.160156 170.792969 C 212.527344 171.171875 212.941406 171.484375 213.40625 171.734375 C 213.867188 171.984375 214.359375 172.15625 214.875 172.25 C 215.390625 172.347656 215.910156 172.363281 216.433594 172.296875 C 216.953125 172.230469 217.453125 172.085938 217.929688 171.863281 C 218.40625 171.640625 218.839844 171.351562 219.226562 170.996094 C 219.613281 170.640625 219.9375 170.234375 220.195312 169.773438 C 222.058594 166.671875 223.460938 163.375 224.40625 159.878906 C 225.351562 156.386719 225.800781 152.828125 225.753906 149.210938 C 225.753906 145.929688 225.339844 142.707031 224.507812 139.535156 C 224.136719 138.128906 223.605469 136.789062 222.914062 135.507812 C 222.226562 134.226562 221.394531 133.046875 220.425781 131.964844 C 219.457031 130.882812 218.371094 129.933594 217.175781 129.109375 C 215.980469 128.285156 214.703125 127.613281 213.347656 127.09375 C 209.183594 125.609375 204.925781 124.492188 200.570312 123.738281 C 196.214844 122.988281 191.828125 122.609375 187.410156 122.609375 C 182.988281 122.609375 178.601562 122.988281 174.25 123.738281 C 169.894531 124.492188 165.632812 125.609375 161.472656 127.09375 C 160.113281 127.613281 158.839844 128.285156 157.644531 129.109375 C 156.445312 129.933594 155.363281 130.882812 154.394531 131.964844 C 153.421875 133.046875 152.59375 134.226562 151.902344 135.507812 C 151.214844 136.789062 150.683594 138.128906 150.3125 139.535156 C 149.480469 142.707031 149.0625 145.929688 149.066406 149.210938 C 149.023438 152.828125 149.476562 156.382812 150.417969 159.878906 C 151.363281 163.371094 152.765625 166.671875 154.621094 169.773438 C 154.882812 170.234375 155.207031 170.640625 155.59375 170.996094 C 155.980469 171.351562 156.410156 171.640625 156.886719 171.863281 C 157.363281 172.085938 157.863281 172.230469 158.386719 172.296875 C 158.90625 172.363281 159.425781 172.347656 159.941406 172.25 C 160.460938 172.15625 160.949219 171.984375 161.414062 171.734375 C 161.875 171.484375 162.289062 171.171875 162.65625 170.792969 C 163.023438 170.414062 163.320312 169.988281 163.554688 169.519531 C 163.789062 169.046875 163.945312 168.550781 164.023438 168.03125 C 164.042969 167.878906 164.125 167.796875 164.28125 167.789062 C 164.421875 167.777344 164.523438 167.835938 164.578125 167.96875 C 164.675781 168.253906 164.742188 168.542969 164.773438 168.84375 C 164.882812 169.957031 164.683594 171.015625 164.175781 172.015625 C 162.671875 175.027344 158.84375 175.703125 155.808594 174.816406 C 154.890625 174.558594 154.0625 174.128906 153.324219 173.527344 C 152.582031 172.925781 151.996094 172.203125 151.558594 171.355469 C 151.523438 171.273438 151.464844 171.222656 151.378906 171.203125 C 151.296875 171.171875 151.21875 171.171875 151.136719 171.203125 C 149.335938 172.742188 147.832031 174.53125 146.632812 176.574219 C 144.53125 180.457031 142.941406 184.539062 141.863281 188.820312 C 140.785156 193.101562 140.253906 197.449219 140.265625 201.863281 C 140.199219 206.199219 140.628906 210.484375 141.554688 214.71875 C 142.476562 218.957031 143.871094 223.03125 145.730469 226.945312 C 145.761719 227.042969 145.828125 227.109375 145.925781 227.140625 C 146.023438 227.171875 146.113281 227.15625 146.195312 227.09375 Z M 163.03125 163.5 C 162.136719 161.867188 161.414062 160.15625 160.863281 158.375 C 160.308594 156.59375 159.941406 154.777344 159.75 152.921875 C 159.5625 151.066406 159.5625 149.210938 159.742188 147.355469 C 159.925781 145.5 160.292969 143.679688 160.839844 141.898438 C 160.996094 141.496094 161.1875 141.113281 161.414062 140.75 C 161.640625 140.382812 161.898438 140.042969 162.1875 139.722656 C 162.476562 139.40625 162.789062 139.113281 163.128906 138.851562 C 163.46875 138.589844 163.832031 138.363281 164.210938 138.164062 C 164.59375 137.96875 164.992188 137.808594 165.402344 137.683594 C 165.8125 137.558594 166.230469 137.472656 166.65625 137.425781 C 167.082031 137.375 167.511719 137.367188 167.9375 137.394531 C 168.367188 137.421875 168.789062 137.488281 169.207031 137.59375 C 175.203125 139.050781 181.285156 139.777344 187.453125 139.777344 C 193.625 139.777344 199.707031 139.050781 205.703125 137.59375 C 206.117188 137.488281 206.539062 137.421875 206.96875 137.394531 C 207.398438 137.367188 207.824219 137.375 208.25 137.425781 C 208.675781 137.472656 209.097656 137.558594 209.507812 137.683594 C 209.917969 137.808594 210.3125 137.96875 210.695312 138.164062 C 211.078125 138.363281 211.4375 138.589844 211.777344 138.851562 C 212.121094 139.113281 212.433594 139.40625 212.722656 139.722656 C 213.007812 140.042969 213.265625 140.382812 213.492188 140.75 C 213.71875 141.113281 213.910156 141.496094 214.070312 141.898438 C 214.613281 143.683594 214.972656 145.503906 215.152344 147.359375 C 215.328125 149.214844 215.320312 151.074219 215.128906 152.929688 C 214.933594 154.785156 214.558594 156.601562 214 158.382812 C 213.445312 160.160156 212.714844 161.867188 211.816406 163.5 C 208.273438 161.992188 204.613281 160.871094 200.835938 160.132812 C 191.875 158.492188 182.914062 158.492188 173.953125 160.132812 C 170.195312 160.875 166.554688 161.996094 163.03125 163.5 Z M 257.234375 160.898438 C 255.160156 157.378906 243.582031 158.929688 229.566406 167.050781 C 229.425781 167.121094 229.386719 167.230469 229.457031 167.375 C 229.527344 167.519531 229.632812 167.558594 229.777344 167.488281 C 240.292969 163.15625 246.902344 161.636719 248.101562 163.683594 C 250.699219 168.089844 225.152344 188.039062 191.027344 208.242188 C 156.90625 228.449219 127.136719 241.25 124.523438 236.828125 C 123.398438 234.902344 127.769531 229.605469 135.636719 223.289062 C 135.761719 223.199219 135.78125 223.089844 135.691406 222.964844 C 135.601562 222.839844 135.492188 222.820312 135.367188 222.910156 C 122.660156 231.382812 115.691406 240.121094 117.691406 243.507812 C 121.070312 249.253906 148.554688 239.414062 181.671875 221.152344 C 181.769531 221.101562 181.84375 221.125 181.902344 221.214844 C 181.960938 221.304688 181.949219 221.382812 181.867188 221.453125 C 177.121094 225.539062 172.027344 229.132812 166.59375 232.238281 C 166.539062 232.285156 166.511719 232.34375 166.511719 232.414062 C 166.511719 232.484375 166.539062 232.539062 166.59375 232.585938 C 168.21875 234.148438 169.992188 235.523438 171.910156 236.707031 C 171.960938 236.726562 171.988281 236.765625 171.988281 236.820312 C 171.988281 236.875 171.960938 236.914062 171.910156 236.933594 C 168.988281 236.582031 166.253906 235.664062 163.707031 234.179688 C 163.636719 234.128906 163.570312 234.128906 163.5 234.179688 C 160.691406 235.789062 156.453125 238 155.253906 238.617188 C 155.191406 238.640625 155.160156 238.683594 155.160156 238.746094 C 155.160156 238.8125 155.191406 238.851562 155.253906 238.875 C 160.304688 240.359375 165.433594 241.492188 170.640625 242.273438 C 175.847656 243.054688 181.082031 243.472656 186.347656 243.53125 C 191.613281 243.589844 196.855469 243.285156 202.078125 242.621094 C 207.300781 241.960938 212.453125 240.941406 217.539062 239.566406 C 219.855469 238.917969 221.800781 237.683594 223.378906 235.867188 C 230.890625 227.199219 234.675781 215.316406 234.675781 201.804688 C 234.675781 198.773438 234.417969 195.765625 233.910156 192.777344 C 233.890625 192.667969 233.832031 192.589844 233.734375 192.542969 C 233.636719 192.496094 233.539062 192.5 233.441406 192.550781 C 228.871094 194.996094 224.136719 197.054688 219.234375 198.734375 C 219.109375 198.761719 219.015625 198.714844 218.957031 198.601562 C 218.898438 198.488281 218.917969 198.386719 219.007812 198.300781 C 244.09375 181.148438 260.175781 165.894531 257.234375 160.898438 Z M 187.453125 247.886719 C 178.234375 247.902344 169.132812 246.863281 160.148438 244.773438 C 160.089844 244.761719 160.042969 244.78125 160.011719 244.832031 C 159.980469 244.882812 159.980469 244.933594 160.015625 244.980469 C 164.308594 250.308594 176.535156 252.097656 187.453125 252.097656 C 198.375 252.097656 210.597656 250.308594 214.910156 244.980469 C 214.945312 244.933594 214.945312 244.882812 214.914062 244.832031 C 214.878906 244.78125 214.832031 244.761719 214.773438 244.773438 C 205.789062 246.863281 196.679688 247.898438 187.453125 247.886719 Z M 187.453125 247.886719 " fill-opacity="1" fill-rule="evenodd"/></g></svg>